<svg xmlns="http://www.w3.org/2000/svg" xmlnsSvgjs="http://svgjs.com/svgjs" xmlnsXlink="http://www.w3.org/1999/xlink" width="288" height="288"><svg xmlns="http://www.w3.org/2000/svg" width="288" height="288" viewBox="0 0 400 400"><path fill="#091929" fill-rule="evenodd" d="M10.156 1.707 C 6.599 4.101,4.690 8.013,4.689 12.914 C 4.688 16.826,37.839 166.348,38.909 167.260 C 39.325 167.614,161.876 189.009,216.211 198.214 C 220.615 198.960,224.219 199.764,224.219 200.000 C 224.219 200.236,220.615 201.041,216.211 201.788 C 159.130 211.473,39.324 232.391,38.903 232.745 C 37.832 233.649,4.687 383.183,4.687 387.112 C 4.687 395.674,9.688 400.320,18.359 399.815 L 23.828 399.496 204.688 306.706 C 304.160 255.671,387.007 213.075,388.792 212.047 C 397.396 207.093,397.396 192.907,388.792 187.953 C 387.007 186.925,304.160 144.329,204.688 93.294 L 23.828 0.504 18.359 0.185 C 13.601 -0.092,12.535 0.106,10.156 1.707 " class="color000 svgShape"/></svg></svg>