<svg xmlns="http://www.w3.org/2000/svg" xmlnsSvgjs="http://svgjs.com/svgjs" xmlnsXlink="http://www.w3.org/1999/xlink" width="288" height="288"><svg xmlns="http://www.w3.org/2000/svg" width="288" height="288" viewBox="0 0 400 400"><path fill="#87bfec" fill-rule="evenodd" d="M163.095 1.517 C 146.449 6.838,137.500 20.415,137.500 40.348 L 137.500 49.945 98.633 50.168 L 59.766 50.391 55.078 52.686 C 49.100 55.614,43.124 61.592,40.189 67.578 L 37.891 72.266 37.678 100.781 C 37.415 136.054,37.932 137.490,50.914 137.497 L 56.126 137.500 56.574 142.383 C 56.820 145.068,59.320 196.484,62.128 256.641 C 64.937 316.797,67.619 367.949,68.088 370.311 C 70.692 383.418,80.210 394.062,93.189 398.381 C 98.116 400.020,98.270 400.022,201.641 399.816 L 305.160 399.609 311.258 396.595 C 322.148 391.213,329.751 381.547,331.931 370.313 C 332.390 367.949,335.063 316.797,337.872 256.641 C 340.680 196.484,343.180 145.068,343.426 142.383 L 343.874 137.500 349.086 137.497 C 362.068 137.490,362.585 136.054,362.322 100.781 L 362.109 72.266 359.811 67.578 C 356.878 61.596,350.904 55.622,344.922 52.689 L 340.234 50.391 301.367 50.168 L 262.500 49.945 262.500 40.276 C 262.500 20.082,253.094 6.231,235.991 1.239 C 229.207 -0.742,169.447 -0.513,163.095 1.517 M226.893 25.748 C 234.182 27.439,236.824 31.619,237.337 42.275 L 237.709 50.000 200.000 50.000 L 162.291 50.000 162.663 42.275 C 163.166 31.824,165.868 27.408,172.752 25.783 C 176.442 24.912,223.157 24.882,226.893 25.748 M333.122 76.088 C 337.007 77.711,337.500 80.110,337.500 97.382 L 337.500 112.500 200.000 112.500 L 62.500 112.500 62.500 97.382 C 62.500 80.328,63.015 77.728,66.707 76.121 C 70.388 74.518,329.290 74.486,333.122 76.088 M317.523 142.383 C 317.310 145.068,314.865 196.133,312.089 255.859 C 306.436 377.494,307.262 368.878,300.865 372.857 L 298.047 374.609 200.000 374.609 L 101.953 374.609 99.135 372.857 C 92.738 368.878,93.564 377.494,87.911 255.859 C 85.135 196.133,82.690 145.068,82.477 142.383 L 82.090 137.500 200.000 137.500 L 317.910 137.500 317.523 142.383 M130.657 164.058 C 124.541 167.787,125.006 160.209,125.006 256.250 C 125.006 352.291,124.541 344.713,130.657 348.442 C 136.322 351.896,145.065 349.881,148.442 344.343 C 150.880 340.344,150.880 172.156,148.442 168.157 C 145.065 162.619,136.322 160.604,130.657 164.058 M193.157 164.058 C 187.041 167.787,187.506 160.209,187.506 256.250 C 187.506 352.291,187.041 344.713,193.157 348.442 C 198.822 351.896,207.565 349.881,210.942 344.343 C 213.380 340.344,213.380 172.156,210.942 168.157 C 207.565 162.619,198.822 160.604,193.157 164.058 M255.657 164.058 C 249.541 167.787,250.006 160.209,250.006 256.250 C 250.006 352.291,249.541 344.713,255.657 348.442 C 261.322 351.896,270.065 349.881,273.442 344.343 C 275.880 340.344,275.880 172.156,273.442 168.157 C 270.065 162.619,261.322 160.604,255.657 164.058 " class="color000 svgShape"/></svg></svg>